<?xml version="1.0" encoding="UTF-8"?>
<svg width="130px" height="48px" viewBox="0 0 130 48" version="1.1" xmlns="http://www.w3.org/2000/svg" xmlns:xlink="http://www.w3.org/1999/xlink">
    <!-- Generator: Sketch 43.2 (39069) - http://www.bohemiancoding.com/sketch -->
    <title>Artboard</title>
    <desc>Created with Sketch.</desc>
    <defs>
        <path d="M19.317,35.719 L12.093,35.719 L9.814,30 L4.181,30 C2.418,30 0.87,28.581 0.87,26.689 L0.87,4.243 C0.87,2.394 2.418,0.975 4.181,0.975 L18.887,0.975 C20.693,0.975 22.155,2.394 22.155,4.243 L22.155,26.689 C22.155,28.581 20.693,30 18.887,30 L16.952,30 L19.317,35.719 Z M14.673,23.335 L14.673,7.683 C14.673,7.425 14.458,7.21 14.2,7.21 L8.739,7.21 C8.567,7.21 8.352,7.425 8.352,7.683 L8.352,23.335 C8.352,23.55 8.567,23.722 8.739,23.722 L14.2,23.722 C14.458,23.722 14.673,23.55 14.673,23.335 Z M30.153,0.975 L30.153,26.689 C30.153,28.581 31.701,30 33.464,30 L48.17,30 C49.976,30 51.438,28.581 51.438,26.689 L51.438,0.975 L43.956,0.975 L43.956,23.335 C43.956,23.55 43.741,23.722 43.483,23.722 L38.022,23.722 C37.85,23.722 37.635,23.55 37.635,23.335 L37.635,0.975 L30.153,0.975 Z M59.694,30 L78.657,30 L78.657,23.722 L67.133,23.722 L67.133,18.476 L77.109,18.476 L77.109,12.284 L67.133,12.284 L67.133,7.21 L78.657,7.21 L78.657,0.975 L59.694,0.975 L59.694,30 Z M85.279,30 L100.673,30 C102.694,30 104.07,28.624 104.07,26.603 L104.07,15.724 C104.07,13.703 102.694,12.327 100.673,12.327 L93.191,12.327 C92.933,12.327 92.761,12.112 92.761,11.94 L92.761,7.683 C92.761,7.425 92.933,7.21 93.191,7.21 L103.683,7.21 L103.683,0.975 L88.676,0.975 C86.655,0.975 85.279,2.351 85.279,4.372 L85.279,15.337 C85.279,17.358 86.655,18.734 88.676,18.734 L96.158,18.734 C96.459,18.734 96.631,18.906 96.631,19.121 L96.631,23.335 C96.631,23.55 96.459,23.722 96.158,23.722 L85.279,23.722 L85.279,30 Z M108.843,0.975 L108.843,7.253 L115.422,7.253 L115.422,30 L122.904,30 L122.904,7.253 L129.483,7.253 L129.483,0.975 L108.843,0.975 Z" id="path-1"></path>
        <filter x="-0.8%" y="-2.9%" width="101.6%" height="111.5%" filterUnits="objectBoundingBox" id="filter-2">
            <feOffset dx="0" dy="2" in="SourceAlpha" result="shadowOffsetOuter1"></feOffset>
            <feColorMatrix values="0 0 0 0 0   0 0 0 0 0   0 0 0 0 0  0 0 0 0.5 0" type="matrix" in="shadowOffsetOuter1"></feColorMatrix>
        </filter>
    </defs>
    <g id="Page-1" stroke="none" stroke-width="1" fill="none" fill-rule="evenodd">
        <g id="Artboard">
            <g id="Group-4">
                <g id="Quest">
                    <use fill="black" fill-opacity="1" filter="url(#filter-2)" xlink:href="#path-1"></use>
                    <use fill="#FF2020" fill-rule="evenodd" xlink:href="#path-1"></use>
                </g>
                <path d="M23.632,48 L26.573,48 L26.573,44.039 L30.313,44.039 L30.313,41.591 L26.573,41.591 L26.573,38.99 L30.908,38.99 L30.908,36.525 L23.632,36.525 L23.632,48 Z M34.733,36.525 L40.632,36.525 C41.431,36.525 41.975,37.069 41.975,37.868 L41.975,46.657 C41.975,47.456 41.431,48 40.632,48 L34.733,48 C33.934,48 33.39,47.456 33.39,46.657 L33.39,37.868 C33.39,37.069 33.934,36.525 34.733,36.525 Z M39.017,45.365 L39.017,39.194 C39.017,39.092 38.932,39.007 38.83,39.007 L36.501,39.007 C36.433,39.007 36.348,39.092 36.348,39.194 L36.348,45.365 C36.348,45.45 36.433,45.518 36.501,45.518 L38.83,45.518 C38.932,45.518 39.017,45.45 39.017,45.365 Z M45.137,36.525 L52.345,36.525 C53.042,36.525 53.637,37.086 53.637,37.817 L53.637,43.07 C53.637,43.767 53.042,44.362 52.345,44.362 L52.26,44.362 L53.671,48 L50.781,48 L49.353,44.362 L48.095,44.362 L48.095,48 L45.137,48 L45.137,36.525 Z M50.696,41.897 L50.696,39.16 C50.696,39.075 50.611,38.99 50.543,38.99 L48.095,38.99 L48.095,42.05 L50.543,42.05 C50.611,42.05 50.696,41.965 50.696,41.897 Z M60.573,48 L66.659,48 C67.458,48 68.002,47.456 68.002,46.657 L68.002,42.356 C68.002,41.557 67.458,41.013 66.659,41.013 L63.701,41.013 C63.599,41.013 63.531,40.928 63.531,40.86 L63.531,39.177 C63.531,39.075 63.599,38.99 63.701,38.99 L67.849,38.99 L67.849,36.525 L61.916,36.525 C61.117,36.525 60.573,37.069 60.573,37.868 L60.573,42.203 C60.573,43.002 61.117,43.546 61.916,43.546 L64.874,43.546 C64.993,43.546 65.061,43.614 65.061,43.699 L65.061,45.365 C65.061,45.45 64.993,45.518 64.874,45.518 L60.573,45.518 L60.573,48 Z M70.96,36.525 L77.981,36.525 C78.678,36.525 79.273,37.086 79.273,37.817 L79.273,43.716 C79.273,44.396 78.678,45.008 77.981,45.008 L73.918,45.008 L73.918,48 L70.96,48 L70.96,36.525 Z M73.918,42.577 L76.162,42.577 C76.247,42.577 76.315,42.492 76.315,42.424 L76.315,39.16 C76.315,39.075 76.247,38.99 76.162,38.99 L73.918,38.99 L73.918,42.577 Z M90.459,37.868 L90.459,48 L87.501,48 L87.501,45.144 L84.9,45.144 L84.9,48 L81.942,48 L81.942,37.868 C81.942,37.069 82.486,36.525 83.285,36.525 L89.116,36.525 C89.915,36.525 90.459,37.069 90.459,37.868 Z M84.9,42.662 L87.501,42.662 L87.501,39.211 C87.501,39.007 87.331,38.871 87.093,38.871 L85.257,38.871 C85.053,38.871 84.9,39.024 84.9,39.211 L84.9,42.662 Z M98.976,43.716 L98.976,45.348 C98.976,45.45 98.891,45.518 98.823,45.518 L96.664,45.518 C96.562,45.518 96.477,45.45 96.477,45.348 L96.477,39.177 C96.477,39.075 96.562,38.99 96.664,38.99 L98.823,38.99 C98.891,38.99 98.976,39.075 98.976,39.177 L98.976,40.775 L101.934,40.775 L101.934,37.817 C101.934,37.12 101.322,36.525 100.591,36.525 L94.828,36.525 C94.097,36.525 93.519,37.12 93.519,37.817 L93.519,46.691 C93.519,47.439 94.097,48 94.828,48 L100.591,48 C101.322,48 101.934,47.439 101.934,46.691 L101.934,43.716 L98.976,43.716 Z M104.773,48 L112.27,48 L112.27,45.518 L107.714,45.518 L107.714,43.444 L111.658,43.444 L111.658,40.996 L107.714,40.996 L107.714,38.99 L112.27,38.99 L112.27,36.525 L104.773,36.525 L104.773,48 Z" id="FOR-SPACE" fill="#896363"></path>
            </g>
        </g>
    </g>
</svg>