<svg id="rocket-container" width="11px" height="31px" viewBox="0 0 11 31">
  <g id="rocket">
      <polygon id="gaurd" fill="#86240C" points="3 29 8 29 7.66344736 31 3.38228707 31"></polygon>
      <path d="M3.29538202,24.0004897 C3.29538202,24.0004897 0.724655534,25.40952 0.222970933,26.512686 C-0.278713667,27.6158519 0.222970933,30.756486 0.222970933,30.756486 C0.222970933,30.756486 1.07942895,29.7177413 1.64769101,29.2611171 C2.21595307,28.8044929 3.29538202,28.287665 3.29538202,28.287665 L3.29538202,24.0004897 Z" id="fin-l" fill="#546B7C"></path>
      <path d="M10.9475559,24.0004897 C10.9475559,24.0004897 8.37682945,25.40952 7.87514485,26.512686 C7.37346025,27.6158519 7.87514485,30.756486 7.87514485,30.756486 C7.87514485,30.756486 8.73160286,29.7177413 9.29986492,29.2611171 C9.86812698,28.8044929 10.9475559,28.287665 10.9475559,28.287665 L10.9475559,24.0004897 Z" id="fin-r" fill="#546B7C" transform="translate(9.299865, 27.378488) scale(-1, 1) translate(-9.299865, -27.378488) "></path>
      <path d="M3.04746713,29.546875 C2.3947312,26.5484437 1.98939014,22.2246713 1.98939014,17.0412693 C1.98939014,6.84589693 5.49202694,0.232183562 5.49202694,0.232183562 C5.49202694,0.232183562 8.99466373,6.84589693 8.99466373,17.0412693 C8.99466373,22.2246713 8.58932267,26.5484437 7.93658674,29.546875 L3.04746713,29.546875 Z" id="base" fill="#FFFFFF"></path>
  </g>
</svg>
